<?xml version="1.0" encoding="UTF-8" standalone="no"?>
<!-- Created with Inkscape (http://www.inkscape.org/) -->

<svg
   xmlns:dc="http://purl.org/dc/elements/1.1/"
   xmlns:cc="http://creativecommons.org/ns#"
   xmlns:rdf="http://www.w3.org/1999/02/22-rdf-syntax-ns#"
   xmlns:svg="http://www.w3.org/2000/svg"
   xmlns="http://www.w3.org/2000/svg"
   xmlns:sodipodi="http://sodipodi.sourceforge.net/DTD/sodipodi-0.dtd"
   xmlns:inkscape="http://www.inkscape.org/namespaces/inkscape"
   width="30"
   height="30.99861"
   viewBox="4 0 0.1 8.2017156"
   version="1.1"
   id="svg402"
   inkscape:version="0.92.0 r15299"
   sodipodi:docname="bytecoin.svg">
  <defs
     id="defs396" />
  <sodipodi:namedview
     id="base"
     pagecolor="#ffffff"
     bordercolor="#666666"
     borderopacity="1.0"
     inkscape:pageopacity="0.0"
     inkscape:pageshadow="2"
     inkscape:zoom="5.5418532"
     inkscape:cx="72.358467"
     inkscape:cy="15.499305"
     inkscape:document-units="mm"
     inkscape:current-layer="layer1"
     showgrid="false"
     fit-margin-top="0"
     fit-margin-left="0"
     fit-margin-right="0"
     fit-margin-bottom="0"
     units="px"
     inkscape:window-width="1280"
     inkscape:window-height="744"
     inkscape:window-x="-4"
     inkscape:window-y="-4"
     inkscape:window-maximized="1" />
  <metadata
     id="metadata399">
    <rdf:RDF>
      <cc:Work
         rdf:about="">
        <dc:format>image/svg+xml</dc:format>
        <dc:type
           rdf:resource="http://purl.org/dc/dcmitype/StillImage" />
        <dc:title></dc:title>
      </cc:Work>
    </rdf:RDF>
  </metadata>
  <g
     inkscape:label="Layer 1"
     inkscape:groupmode="layer"
     id="layer1"
     transform="translate(80.517832,-248.76891)">
    <g
       id="g418"
       transform="matrix(0.03674939,0,0,0.03674939,-246.62928,259.76953)">
      <circle
         id="circle404"
         r="107.99"
         cy="107.99"
         cx="107.99"
         style="fill:#f04086" />
      <path
         id="path406"
         d="m 158.2,113.09 q -6.37,-7.05 -18.36,-8.75 v -0.17 c 7,-1.13 12.5,-4 16.24,-8.59 a 25.09,25.09 0 0 0 5.82,-16.23 c 0,-9.86 -3.18,-16.56 -9.75,-21.83 -6.57,-5.27 -16.44,-7 -29.81,-7 h -50.5 v 47 h -29 v 18 H 122 c 6.23,0 10.91,0.44 14,2.93 3.09,2.49 4.67,5.71 4.67,10.47 0,4.76 -1.56,8.82 -4.67,11.37 -3.11,2.55 -7.79,4.23 -14,4.23 H 94.84 v -14 h -23 v 32 H 124 c 13.26,0 23.4,-3.46 30.43,-8.84 7.03,-5.38 10.33,-13.33 10.33,-23.08 A 25.72,25.72 0 0 0 158.2,113.09 Z M 119.1,97.47 H 94.84 v -29 h 24.26 c 12.47,0 18.7,4.87 18.7,14.5 0,9.63 -6.23,14.5 -18.7,14.5 z"
         inkscape:connector-curvature="0"
         style="fill:#ffffff" />
    </g>
    <path
       id="path420"
       d="m -65.01616,253.2896 v 1.24967 h -0.698033 v -1.24967 l -1.183621,-2.08904 h 0.743854 l 0.535576,0.99646 0.25291,0.52606 0.257969,-0.52606 0.535575,-0.99646 h 0.738499 z m 4.759777,-1.52758 h -1.117865 v 2.77695 h -0.698033 v -2.77695 h -1.122923 v -0.56146 h 2.938821 z m 3.652028,2.2146 v 0.56235 h -2.574629 v -3.33841 h 2.503814 v 0.56146 h -1.805781 v 0.82954 h 1.421357 v 0.53558 h -1.421357 v 0.84948 z m 3.424409,0.36746 q -0.373118,0.24548 -0.895304,0.24548 -0.490646,0 -0.854837,-0.20828 a 1.3808915,1.3808915 0 0 1 -0.559081,-0.59509 q -0.19489,-0.3868 -0.194593,-0.91791 2.98e-4,-0.53111 0.194593,-0.91822 a 1.3853547,1.3853547 0 0 1 0.556403,-0.59508 q 0.361513,-0.20828 0.847399,-0.20828 0.520996,0 0.882509,0.2175 0.361513,0.21751 0.498382,0.64745 l -0.632276,0.26779 q -0.08093,-0.29754 -0.25291,-0.42995 -0.17198,-0.1324 -0.465356,-0.13151 -0.42489,0 -0.665303,0.29754 -0.240414,0.29754 -0.240117,0.85425 0,0.55134 0.232678,0.84977 0.232678,0.29844 0.657568,0.29755 0.612043,0 0.768848,-0.59181 l 0.642392,0.19429 q -0.146688,0.47934 -0.520995,0.72451 z m 3.917733,-2.98583 a 1.3862473,1.3862473 0 0 1 0.556403,0.59509 q 0.194592,0.3868 0.194592,0.91821 0,0.53141 -0.194592,0.91792 a 1.3859498,1.3859498 0 0 1 -0.556403,0.59508 q -0.361811,0.20828 -0.85216,0.20828 -0.490349,0 -0.854838,-0.20828 a 1.3808915,1.3808915 0 0 1 -0.559081,-0.59508 q -0.19489,-0.38681 -0.194592,-0.91792 2.97e-4,-0.53111 0.193104,-0.92 a 1.3811891,1.3811891 0 0 1 0.560272,-0.5933 q 0.364191,-0.20828 0.854837,-0.20828 0.490647,0 0.852458,0.20828 z m -1.507347,0.65906 q -0.230298,0.29575 -0.23,0.85246 2.98e-4,0.5567 0.23,0.85216 0.23,0.29575 0.654592,0.29605 0.419831,0 0.649831,-0.29605 0.23,-0.29606 0.230297,-0.85216 0,-0.55641 -0.230297,-0.85246 -0.230297,-0.29606 -0.649831,-0.29576 -0.424592,0 -0.654592,0.29576 z m 4.165288,2.52166 h -0.698033 v -3.33841 h 0.698033 z m 4.243838,0 h -0.799197 l -1.169637,-1.96258 -0.288318,-0.56146 h -0.0051 l 0.02142,0.593 v 1.93104 h -0.627173 v -3.33841 h 0.794139 l 1.168447,1.95752 0.288318,0.56533 h 0.01012 l -0.02024,-0.59181 v -1.93104 h 0.627218 z m -25.26963,-1.46569 c -0.126456,-0.13984 -0.294269,-0.22732 -0.532303,-0.26035 v -0.005 c 0.20828,-0.0336 0.35705,-0.11901 0.468926,-0.25558 a 0.74058157,0.74058157 0 0 0 0.166326,-0.48291 c 0,-0.29338 -0.09819,-0.51207 -0.293674,-0.66918 -0.195485,-0.1571 -0.492729,-0.2288 -0.890542,-0.2288 h -1.47432 v 1.39844 h -0.862871 v 0.53558 h 2.327074 c 0.185369,0 0.324618,0.0324 0.416559,0.10682 0.09194,0.0744 0.138952,0.17852 0.138952,0.32134 0,0.14282 -0.04552,0.24756 -0.138357,0.32402 -0.09283,0.0765 -0.231785,0.11128 -0.416559,0.11128 h -0.780452 v -0.41655 h -0.684346 v 0.95213 h 1.524902 c 0.39454,0 0.696248,-0.0833 0.905419,-0.24369 0.209172,-0.16037 0.314205,-0.3868 0.314205,-0.6769 a 0.73492827,0.73492827 0 0 0 -0.188939,-0.51059 z m -1.177373,-0.50344 h -0.693868 v -0.86287 h 0.693868 c 0.371034,0 0.556403,0.1449 0.556403,0.43144 0,0.28653 -0.185369,0.43143 -0.556403,0.43143 z"
       inkscape:connector-curvature="0"
       style="stroke-width:0.02975418" />
    <g
       id="g2128"
       transform="translate(0.13228773,-0.13228907)">
      <g
         transform="matrix(0.03674939,0,0,0.03674939,-80.517829,249.03349)"
         id="g445">
        <circle
           style="fill:#f04086"
           cx="107.99"
           cy="107.99"
           r="107.99"
           id="circle431" />
        <path
           style="fill:#ffffff"
           inkscape:connector-curvature="0"
           d="m 158.2,113.09 q -6.37,-7.05 -18.36,-8.75 v -0.17 c 7,-1.13 12.5,-4 16.24,-8.59 a 25.09,25.09 0 0 0 5.82,-16.23 c 0,-9.86 -3.18,-16.56 -9.75,-21.83 -6.57,-5.27 -16.44,-7 -29.81,-7 h -50.5 v 47 h -29 v 18 H 122 c 6.23,0 10.91,0.44 14,2.93 3.09,2.49 4.67,5.71 4.67,10.47 0,4.76 -1.56,8.82 -4.67,11.37 -3.11,2.55 -7.79,4.23 -14,4.23 H 94.84 v -14 h -23 v 32 H 124 c 13.26,0 23.4,-3.46 30.43,-8.84 7.03,-5.38 10.33,-13.33 10.33,-23.08 A 25.72,25.72 0 0 0 158.2,113.09 Z M 119.1,97.47 H 94.84 v -29 h 24.26 c 12.47,0 18.7,4.87 18.7,14.5 0,9.63 -6.23,14.5 -18.7,14.5 z"
           id="path433" />
      </g>
    </g>
  </g>
</svg>
